<svg width="22" height="23" viewBox="0 0 22 23" fill="none" xmlns="http://www.w3.org/2000/svg">
<path d="M18 8.0993L19.25 5.3493L22 4.0993L19.25 2.8493L18 0.0992966L16.75 2.8493L14 4.0993L16.75 5.3493L18 8.0993ZM10.5 8.5993L8 3.0993L5.5 8.5993L0 11.0993L5.5 13.5993L8 19.0993L10.5 13.5993L16 11.0993L10.5 8.5993ZM18 14.0993L16.75 16.8493L14 18.0993L16.75 19.3493L18 22.0993L19.25 19.3493L22 18.0993L19.25 16.8493L18 14.0993Z" fill="#10B146"/>
<path d="M18 8.0993L19.25 5.3493L22 4.0993L19.25 2.8493L18 0.0992966L16.75 2.8493L14 4.0993L16.75 5.3493L18 8.0993ZM10.5 8.5993L8 3.0993L5.5 8.5993L0 11.0993L5.5 13.5993L8 19.0993L10.5 13.5993L16 11.0993L10.5 8.5993ZM18 14.0993L16.75 16.8493L14 18.0993L16.75 19.3493L18 22.0993L19.25 19.3493L22 18.0993L19.25 16.8493L18 14.0993Z" fill="url(#paint0_linear_373_1728)" fill-opacity="0.2"/>
<defs>
<linearGradient id="paint0_linear_373_1728" x1="11" y1="0.0992966" x2="11" y2="22.0993" gradientUnits="userSpaceOnUse">
<stop stop-color="white"/>
<stop offset="1" stop-opacity="0"/>
</linearGradient>
</defs>
</svg>
