<svg width="36" height="40" viewBox="0 0 36 40" fill="none" xmlns="http://www.w3.org/2000/svg">
<path d="M6 40C4.3 40 2.875 39.425 1.725 38.275C0.575 37.125 0 35.7 0 34V6C0 4.33333 0.575 2.91667 1.725 1.75C2.875 0.583333 4.3 0 6 0H24C25.1 0 26.0417 0.391667 26.825 1.175C27.6083 1.95833 28 2.9 28 4V28C28 29.1 27.6083 30.0417 26.825 30.825C26.0417 31.6083 25.1 32 24 32H6C5.43333 32 4.95833 32.1917 4.575 32.575C4.19167 32.9583 4 33.4333 4 34C4 34.5667 4.19167 35.0417 4.575 35.425C4.95833 35.8083 5.43333 36 6 36H32V6C32 5.43333 32.1917 4.95833 32.575 4.575C32.9583 4.19167 33.4333 4 34 4C34.5667 4 35.0417 4.19167 35.425 4.575C35.8083 4.95833 36 5.43333 36 6V36C36 37.1 35.6083 38.0417 34.825 38.825C34.0417 39.6083 33.1 40 32 40H6ZM10 28C10.5667 28 11.0417 27.8083 11.425 27.425C11.8083 27.0417 12 26.5667 12 26V6C12 5.43333 11.8083 4.95833 11.425 4.575C11.0417 4.19167 10.5667 4 10 4C9.43333 4 8.95833 4.19167 8.575 4.575C8.19167 4.95833 8 5.43333 8 6V26C8 26.5667 8.19167 27.0417 8.575 27.425C8.95833 27.8083 9.43333 28 10 28Z" fill="#086238"/>
</svg>
