<svg width="40" height="40" viewBox="0 0 40 40" fill="none" xmlns="http://www.w3.org/2000/svg">
<path d="M23.7497 40H16.2497C15.7497 40 15.3164 39.8333 14.9497 39.5C14.583 39.1667 14.3664 38.75 14.2997 38.25L13.6997 33.6C13.2664 33.4333 12.8584 33.2333 12.4757 33C12.0917 32.7667 11.7164 32.5167 11.3497 32.25L6.9997 34.05C6.53303 34.2167 6.06637 34.2333 5.5997 34.1C5.13303 33.9667 4.76636 33.6833 4.4997 33.25L0.799698 26.8C0.533031 26.3667 0.449698 25.9 0.549698 25.4C0.649698 24.9 0.899698 24.5 1.2997 24.2L5.0497 21.35C5.01637 21.1167 4.9997 20.8913 4.9997 20.674V19.324C4.9997 19.108 5.01637 18.8833 5.0497 18.65L1.2997 15.8C0.899698 15.5 0.649698 15.1 0.549698 14.6C0.449698 14.1 0.533031 13.6333 0.799698 13.2L4.4997 6.75C4.73303 6.28333 5.09103 5.99133 5.5737 5.874C6.0577 5.758 6.53303 5.78333 6.9997 5.95L11.3497 7.75C11.7164 7.48333 12.0997 7.23333 12.4997 7C12.8997 6.76667 13.2997 6.56667 13.6997 6.4L14.2997 1.75C14.3664 1.25 14.583 0.833333 14.9497 0.5C15.3164 0.166667 15.7497 0 16.2497 0H23.7497C24.2497 0 24.683 0.166667 25.0497 0.5C25.4164 0.833333 25.633 1.25 25.6997 1.75L26.2997 6.4C26.733 6.56667 27.1417 6.76667 27.5257 7C27.9084 7.23333 28.283 7.48333 28.6497 7.75L32.9997 5.95C33.4664 5.78333 33.933 5.76667 34.3997 5.9C34.8664 6.03333 35.233 6.31667 35.4997 6.75L39.1997 13.2C39.4664 13.6333 39.5497 14.1 39.4497 14.6C39.3497 15.1 39.0997 15.5 38.6997 15.8L34.9497 18.65C34.983 18.8833 34.9997 19.108 34.9997 19.324V20.674C34.9997 20.8913 34.9664 21.1167 34.8997 21.35L38.6497 24.2C39.0497 24.5 39.2997 24.9 39.3997 25.4C39.4997 25.9 39.4164 26.3667 39.1497 26.8L35.4497 33.2C35.183 33.6333 34.8084 33.9253 34.3257 34.076C33.8417 34.2253 33.3664 34.2167 32.8997 34.05L28.6497 32.25C28.283 32.5167 27.8997 32.7667 27.4997 33C27.0997 33.2333 26.6997 33.4333 26.2997 33.6L25.6997 38.25C25.633 38.75 25.4164 39.1667 25.0497 39.5C24.683 39.8333 24.2497 40 23.7497 40ZM20.0997 27C22.033 27 23.683 26.3167 25.0497 24.95C26.4164 23.5833 27.0997 21.9333 27.0997 20C27.0997 18.0667 26.4164 16.4167 25.0497 15.05C23.683 13.6833 22.033 13 20.0997 13C18.133 13 16.4744 13.6833 15.1237 15.05C13.7744 16.4167 13.0997 18.0667 13.0997 20C13.0997 21.9333 13.7744 23.5833 15.1237 24.95C16.4744 26.3167 18.133 27 20.0997 27ZM20.0997 23C19.2664 23 18.5584 22.708 17.9757 22.124C17.3917 21.5413 17.0997 20.8333 17.0997 20C17.0997 19.1667 17.3917 18.4587 17.9757 17.876C18.5584 17.292 19.2664 17 20.0997 17C20.933 17 21.6417 17.292 22.2257 17.876C22.8084 18.4587 23.0997 19.1667 23.0997 20C23.0997 20.8333 22.8084 21.5413 22.2257 22.124C21.6417 22.708 20.933 23 20.0997 23ZM17.9997 36H21.9497L22.6497 30.7C23.683 30.4333 24.6417 30.0413 25.5257 29.524C26.4084 29.008 27.2164 28.3833 27.9497 27.65L32.8997 29.7L34.8497 26.3L30.5497 23.05C30.7164 22.5833 30.833 22.0913 30.8997 21.574C30.9664 21.058 30.9997 20.5333 30.9997 20C30.9997 19.4667 30.9664 18.9413 30.8997 18.424C30.833 17.908 30.7164 17.4167 30.5497 16.95L34.8497 13.7L32.8997 10.3L27.9497 12.4C27.2164 11.6333 26.4084 10.9913 25.5257 10.474C24.6417 9.958 23.683 9.56667 22.6497 9.3L21.9997 4H18.0497L17.3497 9.3C16.3164 9.56667 15.3584 9.958 14.4757 10.474C13.5917 10.9913 12.783 11.6167 12.0497 12.35L7.0997 10.3L5.1497 13.7L9.4497 16.9C9.28303 17.4 9.16636 17.9 9.0997 18.4C9.03303 18.9 8.9997 19.4333 8.9997 20C8.9997 20.5333 9.03303 21.05 9.0997 21.55C9.16636 22.05 9.28303 22.55 9.4497 23.05L5.1497 26.3L7.0997 29.7L12.0497 27.6C12.783 28.3667 13.5917 29.008 14.4757 29.524C15.3584 30.0413 16.3164 30.4333 17.3497 30.7L17.9997 36Z" fill="#06C66D"/>
</svg>
